<mxfile host="app.diagrams.net" modified="2024-04-19T15:46:36.986Z" agent="Mozilla/5.0 (Macintosh; Intel Mac OS X 10.15; rv:125.0) Gecko/20100101 Firefox/125.0" version="24.2.5" etag="3o-LqIMfFt_xb9XE4-fc" type="github">
  <diagram name="Страница — 1" id="DLZ9GAp8HEIyRK9nuuDk">
    <mxGraphModel>
      <root>
        <mxCell id="0" />
        <mxCell id="1" parent="0" />
      </root>
    </mxGraphModel>
  </diagram>
</mxfile>
